<svg width="21" height="18" viewBox="0 0 21 18" fill="none" xmlns="http://www.w3.org/2000/svg">
<path d="M10.25 16.2903C8.899 15.3393 7.335 14.7333 5.695 14.5293C4.53185 14.293 3.34682 14.1813 2.16 14.1963C2.00814 14.1976 1.85752 14.1688 1.71684 14.1116C1.57616 14.0544 1.4482 13.9699 1.34035 13.863C1.23251 13.7561 1.1469 13.6289 1.08849 13.4887C1.03007 13.3485 0.999994 13.1981 1 13.0463L1.021 2.15328C1.02036 1.861 1.13103 1.57945 1.33053 1.36584C1.53002 1.15223 1.80336 1.02259 2.095 1.00328C3.30314 0.979263 4.5103 1.08724 5.695 1.32528C7.33322 1.53664 8.896 2.14116 10.25 3.08728M10.25 16.2903V3.08728M10.25 16.2903C11.601 15.3393 13.165 14.7333 14.805 14.5293C15.9682 14.293 17.1532 14.1813 18.34 14.1963C18.4919 14.1976 18.6425 14.1688 18.7832 14.1116C18.9238 14.0544 19.0518 13.9699 19.1596 13.863C19.2675 13.7561 19.3531 13.6289 19.4115 13.4887C19.4699 13.3485 19.5 13.1981 19.5 13.0463L19.478 2.15328C19.4787 1.86116 19.3681 1.57975 19.1688 1.36616C18.9696 1.15258 18.6965 1.02284 18.405 1.00328C17.1969 0.979263 15.9897 1.08724 14.805 1.32528C13.1668 1.53664 11.604 2.14116 10.25 3.08728" stroke="white" stroke-width="2" stroke-linecap="round" stroke-linejoin="round"/>
</svg>
