<svg width="27" height="14" viewBox="0 0 27 14" fill="none" xmlns="http://www.w3.org/2000/svg">
<path d="M26.6401 13.6579C26.5261 13.7663 26.3908 13.8524 26.2418 13.9111C26.0928 13.9698 25.9331 14 25.7718 14C25.6106 14 25.4509 13.9698 25.3019 13.9111C25.1529 13.8524 25.0176 13.7663 24.9036 13.6579L13.4999 2.81659L2.09612 13.6579C1.86585 13.8768 1.55353 13.9997 1.22788 13.9997C0.902226 13.9997 0.58991 13.8768 0.359638 13.6579C0.129365 13.439 6.41942e-09 13.1421 0 12.8326C-6.41942e-09 12.523 0.129365 12.2261 0.359638 12.0073L12.6316 0.342123C12.7456 0.233664 12.8809 0.147624 13.0299 0.0889201C13.1789 0.0302161 13.3386 0 13.4999 0C13.6611 0 13.8208 0.0302161 13.9698 0.0889201C14.1188 0.147624 14.2541 0.233664 14.3681 0.342123L26.6401 12.0073C26.7542 12.1156 26.8447 12.2443 26.9065 12.3859C26.9682 12.5275 27 12.6793 27 12.8326C27 12.9859 26.9682 13.1377 26.9065 13.2793C26.8447 13.4209 26.7542 13.5495 26.6401 13.6579Z" fill="white"/>
</svg>
