<svg width="29" height="29" viewBox="0 0 29 29" fill="none" xmlns="http://www.w3.org/2000/svg">
<path fill-rule="evenodd" clip-rule="evenodd" d="M28.3333 14.1667C28.3333 21.9909 21.9909 28.3333 14.1667 28.3333C6.34242 28.3333 0 21.9909 0 14.1667C0 6.34242 6.34242 0 14.1667 0C21.9909 0 28.3333 6.34242 28.3333 14.1667ZM14.1667 25.5C17.1725 25.5 20.0551 24.306 22.1805 22.1805C24.306 20.0551 25.5 17.1725 25.5 14.1667C25.5 11.1609 24.306 8.2782 22.1805 6.15279C20.0551 4.02738 17.1725 2.83333 14.1667 2.83333C11.1609 2.83333 8.2782 4.02738 6.15279 6.15279C4.02738 8.2782 2.83333 11.1609 2.83333 14.1667C2.83333 17.1725 4.02738 20.0551 6.15279 22.1805C8.2782 24.306 11.1609 25.5 14.1667 25.5Z" fill="white"/>
<path fill-rule="evenodd" clip-rule="evenodd" d="M14.1667 12.75C14.5424 12.75 14.9027 12.8993 15.1684 13.1649C15.4341 13.4306 15.5833 13.7909 15.5833 14.1667V19.8333C15.5833 20.2091 15.4341 20.5694 15.1684 20.8351C14.9027 21.1007 14.5424 21.25 14.1667 21.25C13.7909 21.25 13.4306 21.1007 13.1649 20.8351C12.8993 20.5694 12.75 20.2091 12.75 19.8333V14.1667C12.75 13.7909 12.8993 13.4306 13.1649 13.1649C13.4306 12.8993 13.7909 12.75 14.1667 12.75Z" fill="white"/>
<path d="M15.5833 9.91667C15.5833 10.2924 15.4341 10.6527 15.1684 10.9184C14.9027 11.1841 14.5424 11.3333 14.1667 11.3333C13.7909 11.3333 13.4306 11.1841 13.1649 10.9184C12.8993 10.6527 12.75 10.2924 12.75 9.91667C12.75 9.54094 12.8993 9.18061 13.1649 8.91493C13.4306 8.64926 13.7909 8.5 14.1667 8.5C14.5424 8.5 14.9027 8.64926 15.1684 8.91493C15.4341 9.18061 15.5833 9.54094 15.5833 9.91667Z" fill="white"/>
</svg>
