<svg width="36" height="36" viewBox="0 0 36 36" fill="none" xmlns="http://www.w3.org/2000/svg">
<path fill-rule="evenodd" clip-rule="evenodd" d="M0.5 18C0.5 8.33475 8.33475 0.5 18 0.5C27.6652 0.5 35.5 8.33475 35.5 18C35.5 27.6652 27.6652 35.5 18 35.5C8.33475 35.5 0.5 27.6652 0.5 18ZM18 4C14.287 4 10.726 5.475 8.10051 8.10051C5.475 10.726 4 14.287 4 18C4 21.713 5.475 25.274 8.10051 27.8995C10.726 30.525 14.287 32 18 32C21.713 32 25.274 30.525 27.8995 27.8995C30.525 25.274 32 21.713 32 18C32 14.287 30.525 10.726 27.8995 8.10051C25.274 5.475 21.713 4 18 4Z" fill="black"/>
<path fill-rule="evenodd" clip-rule="evenodd" d="M19.75 9.25C19.75 8.78587 19.5656 8.34075 19.2374 8.01256C18.9092 7.68437 18.4641 7.5 18 7.5C17.5359 7.5 17.0908 7.68437 16.7626 8.01256C16.4344 8.34075 16.25 8.78587 16.25 9.25V16.25H9.25C8.78587 16.25 8.34075 16.4344 8.01256 16.7626C7.68437 17.0908 7.5 17.5359 7.5 18C7.5 18.4641 7.68437 18.9092 8.01256 19.2374C8.34075 19.5656 8.78587 19.75 9.25 19.75H16.25V26.75C16.25 27.2141 16.4344 27.6592 16.7626 27.9874C17.0908 28.3156 17.5359 28.5 18 28.5C18.4641 28.5 18.9092 28.3156 19.2374 27.9874C19.5656 27.6592 19.75 27.2141 19.75 26.75V19.75H26.75C27.2141 19.75 27.6592 19.5656 27.9874 19.2374C28.3156 18.9092 28.5 18.4641 28.5 18C28.5 17.5359 28.3156 17.0908 27.9874 16.7626C27.6592 16.4344 27.2141 16.25 26.75 16.25H19.75V9.25Z" fill="black"/>
</svg>
