<svg width="14" height="14" viewBox="0 0 14 14" fill="none" xmlns="http://www.w3.org/2000/svg">
<path d="M6.13555 11.9311C6.13555 12.3282 5.97777 12.7091 5.69694 12.99C5.4161 13.2708 5.03521 13.4286 4.63805 13.4286C4.24089 13.4286 3.85999 13.2708 3.57915 12.99C3.29832 12.7091 3.14055 12.3282 3.14055 11.9311C3.14055 11.5339 3.29832 11.153 3.57915 10.8722C3.85999 10.5913 4.24089 10.4336 4.63805 10.4336C5.03521 10.4336 5.4161 10.5913 5.69694 10.8722C5.97777 11.153 6.13555 11.5339 6.13555 11.9311ZM6.13555 11.9311L6.13605 8.89258M12.874 10.0596C12.874 10.4566 12.7163 10.8374 12.4356 11.1181C12.1548 11.3989 11.7741 11.5566 11.377 11.5566C10.98 11.5566 10.5993 11.3989 10.3185 11.1181C10.0378 10.8374 9.88005 10.4566 9.88005 10.0596C9.88005 9.66255 10.0378 9.28178 10.3185 9.00104C10.5993 8.7203 10.98 8.56258 11.377 8.56258C11.7741 8.56258 12.1548 8.7203 12.4356 9.00104C12.7163 9.28178 12.874 9.66255 12.874 10.0596ZM12.874 10.0596V4.18958C12.8738 4.13227 12.8603 4.0758 12.8347 4.02452C12.8091 3.97324 12.7721 3.92852 12.7265 3.89383C12.6809 3.85914 12.6279 3.83539 12.5716 3.82442C12.5154 3.81345 12.4574 3.81556 12.402 3.83058L9.40705 4.66158M12.874 5.94158L7.42005 7.45658M2.00705 6.62358V8.89158M0.873047 7.75758H3.14105M4.76205 2.59758C5.20705 1.99658 5.48105 0.767578 5.48105 0.767578C5.48105 0.767578 5.75505 1.99658 6.19905 2.59758C6.64805 3.20358 8.07705 3.73358 8.07705 3.73358C8.07705 3.73358 6.64705 4.26358 6.19905 4.87058C5.75505 5.47058 5.48105 6.69958 5.48105 6.69958C5.48105 6.69958 5.20705 5.47158 4.76205 4.86958C4.31405 4.26458 2.88505 3.73358 2.88505 3.73358C2.88505 3.73358 4.31405 3.20358 4.76205 2.59758Z" stroke="white" stroke-linecap="round" stroke-linejoin="round"/>
</svg>
