<svg width="18" height="18" viewBox="0 0 18 18" fill="none" xmlns="http://www.w3.org/2000/svg">
<path d="M9 18C6.9 18 5.04167 17.3627 3.425 16.088C1.80833 14.8133 0.758333 13.184 0.275 11.2C0.208333 10.95 0.258333 10.721 0.425 10.513C0.591667 10.305 0.816667 10.184 1.1 10.15C1.36667 10.1167 1.60833 10.1667 1.825 10.3C2.04167 10.4333 2.19167 10.6333 2.275 10.9C2.675 12.4 3.5 13.625 4.75 14.575C6 15.525 7.41667 16 9 16C10.95 16 12.6043 15.321 13.963 13.963C15.3217 12.605 16.0007 10.9507 16 9C15.9993 7.04933 15.3203 5.39533 13.963 4.038C12.6057 2.68067 10.9513 2.00133 9 2C7.85 2 6.775 2.26667 5.775 2.8C4.775 3.33333 3.93333 4.06667 3.25 5H5C5.28333 5 5.521 5.096 5.713 5.288C5.905 5.48 6.00067 5.71733 6 6C5.99933 6.28267 5.90333 6.52033 5.712 6.713C5.52067 6.90567 5.28333 7.00133 5 7H1C0.716667 7 0.479333 6.904 0.288 6.712C0.0966668 6.52 0.000666667 6.28267 0 6V2C0 1.71667 0.0960001 1.47933 0.288 1.288C0.48 1.09667 0.717333 1.00067 1 1C1.28267 0.999333 1.52033 1.09533 1.713 1.288C1.90567 1.48067 2.00133 1.718 2 2V3.35C2.85 2.28333 3.88767 1.45833 5.113 0.875C6.33833 0.291667 7.634 0 9 0C10.25 0 11.421 0.237667 12.513 0.713C13.605 1.18833 14.555 1.82967 15.363 2.637C16.171 3.44433 16.8127 4.39433 17.288 5.487C17.7633 6.57967 18.0007 7.75067 18 9C17.9993 10.2493 17.762 11.4203 17.288 12.513C16.814 13.6057 16.1723 14.5557 15.363 15.363C14.5537 16.1703 13.6037 16.812 12.513 17.288C11.4223 17.764 10.2513 18.0013 9 18ZM10 8.6L12.5 11.1C12.6833 11.2833 12.775 11.5167 12.775 11.8C12.775 12.0833 12.6833 12.3167 12.5 12.5C12.3167 12.6833 12.0833 12.775 11.8 12.775C11.5167 12.775 11.2833 12.6833 11.1 12.5L8.3 9.7C8.2 9.6 8.125 9.48767 8.075 9.363C8.025 9.23833 8 9.109 8 8.975V5C8 4.71667 8.096 4.47933 8.288 4.288C8.48 4.09667 8.71733 4.00067 9 4C9.28267 3.99933 9.52033 4.09533 9.713 4.288C9.90567 4.48067 10.0013 4.718 10 5V8.6Z" fill="white"/>
</svg>
