<svg width="25" height="28" viewBox="0 0 25 28" fill="none" xmlns="http://www.w3.org/2000/svg">
<path d="M3.125 24.8H7.8125V16.8C7.8125 16.3467 7.9625 15.9669 8.2625 15.6608C8.5625 15.3547 8.93333 15.2011 9.375 15.2H15.625C16.0677 15.2 16.4391 15.3536 16.7391 15.6608C17.0391 15.968 17.1885 16.3477 17.1875 16.8V24.8H21.875V10.4L12.5 3.2L3.125 10.4V24.8ZM0 24.8V10.4C0 9.89333 0.110937 9.41333 0.332812 8.96C0.554687 8.50667 0.860417 8.13333 1.25 7.84L10.625 0.64C11.1719 0.213333 11.7969 0 12.5 0C13.2031 0 13.8281 0.213333 14.375 0.64L23.75 7.84C24.1406 8.13333 24.4469 8.50667 24.6687 8.96C24.8906 9.41333 25.001 9.89333 25 10.4V24.8C25 25.68 24.6937 26.4336 24.0812 27.0608C23.4687 27.688 22.7333 28.0011 21.875 28H15.625C15.1823 28 14.8115 27.8464 14.5125 27.5392C14.2135 27.232 14.0635 26.8523 14.0625 26.4V18.4H10.9375V26.4C10.9375 26.8533 10.7875 27.2336 10.4875 27.5408C10.1875 27.848 9.81666 28.0011 9.375 28H3.125C2.26562 28 1.53021 27.6869 0.918749 27.0608C0.307291 26.4347 0.00104167 25.6811 0 24.8Z" fill="white"/>
</svg>
