<svg width="29" height="29" viewBox="0 0 29 29" fill="none" xmlns="http://www.w3.org/2000/svg">
<path d="M18.6692 15.7497C20.1318 16.0473 21.6514 15.8658 23.0028 15.232C24.3542 14.5982 25.4654 13.5459 26.1718 12.231C26.8781 10.916 27.142 9.40853 26.9243 7.93186C26.7067 6.45519 26.019 5.08795 24.9633 4.03277C23.9076 2.9776 22.54 2.29064 21.0632 2.07373C19.5864 1.85682 18.0791 2.12149 16.7645 2.82851C15.4499 3.53554 14.3982 4.64729 13.7651 5.999C13.132 7.35071 12.9512 8.87043 13.2496 10.3329M18.6692 15.7497L13.2496 10.3343L2.81467 22.2568C2.29344 22.7775 2.00039 23.4839 2 24.2206C1.99981 24.5854 2.07147 24.9467 2.21089 25.2838C2.35032 25.6209 2.55477 25.9272 2.81259 26.1853C3.0704 26.4434 3.37653 26.6482 3.71349 26.788C4.05044 26.9278 4.41163 26.9998 4.77643 27C5.51318 27.0004 6.21991 26.7081 6.74114 26.1874L18.6692 15.7497Z" stroke="white" stroke-width="2.77783" stroke-linecap="round" stroke-linejoin="round"/>
</svg>
