<svg width="14" height="14" viewBox="0 0 14 14" fill="none" xmlns="http://www.w3.org/2000/svg">
<path fill-rule="evenodd" clip-rule="evenodd" d="M13.8171 0.558117C13.8751 0.616155 13.9212 0.685062 13.9526 0.760901C13.984 0.836741 14.0002 0.918026 14.0002 1.00012C14.0002 1.08221 13.984 1.16349 13.9526 1.23933C13.9212 1.31517 13.8751 1.38408 13.8171 1.44212L10.3841 4.87512H12.8751C13.0408 4.87512 13.1998 4.94096 13.317 5.05817C13.4342 5.17538 13.5001 5.33436 13.5001 5.50012C13.5001 5.66588 13.4342 5.82485 13.317 5.94206C13.1998 6.05927 13.0408 6.12512 12.8751 6.12512H8.87508C8.79293 6.12538 8.71154 6.10939 8.63559 6.07808C8.55965 6.04676 8.49064 6.00074 8.43255 5.94265C8.37446 5.88456 8.32844 5.81555 8.29712 5.73961C8.2658 5.66366 8.24982 5.58227 8.25008 5.50012V1.50012C8.25008 1.33436 8.31593 1.17539 8.43314 1.05817C8.55035 0.940965 8.70932 0.875117 8.87508 0.875117C9.04084 0.875117 9.19981 0.940965 9.31702 1.05817C9.43423 1.17539 9.50008 1.33436 9.50008 1.50012V3.99112L12.9331 0.558117C12.9911 0.500062 13.06 0.454011 13.1359 0.422591C13.2117 0.391172 13.293 0.375 13.3751 0.375C13.4572 0.375 13.5385 0.391172 13.6143 0.422591C13.6901 0.454011 13.759 0.500062 13.8171 0.558117ZM6.45308 8.26112C6.42233 8.18528 6.37639 8.11654 6.31808 8.05912L6.31608 8.05712C6.25824 7.99916 6.18948 7.95324 6.11379 7.922C6.0381 7.89076 5.95697 7.87483 5.87508 7.87512H1.87508C1.70932 7.87512 1.55035 7.94096 1.43314 8.05817C1.31593 8.17538 1.25008 8.33436 1.25008 8.50012C1.25008 8.66588 1.31593 8.82485 1.43314 8.94206C1.55035 9.05927 1.70932 9.12512 1.87508 9.12512H4.36608L0.933082 12.5581C0.815857 12.6753 0.75 12.8343 0.75 13.0001C0.75 13.1659 0.815857 13.3249 0.933082 13.4421C1.05031 13.5593 1.2093 13.6252 1.37508 13.6252C1.54086 13.6252 1.69986 13.5593 1.81708 13.4421L5.25008 10.0091V12.5001C5.25008 12.6659 5.31593 12.8248 5.43314 12.9421C5.55035 13.0593 5.70932 13.1251 5.87508 13.1251C6.04084 13.1251 6.19981 13.0593 6.31702 12.9421C6.43423 12.8248 6.50008 12.6659 6.50008 12.5001V8.50012C6.50106 8.41774 6.48506 8.33704 6.45308 8.26112Z" fill="white"/>
</svg>
