<svg width="55" height="64" viewBox="0 0 55 64" fill="none" xmlns="http://www.w3.org/2000/svg">
<path fill-rule="evenodd" clip-rule="evenodd" d="M7.47365 0L25.6451 16.7424L25.6451 16.7385L25.6451 0.038629H29.1824L29.1824 16.8173L47.4352 2.22144e-06V19.0888L54.9293 19.0888V46.6224H47.4583V63.6201L29.1824 47.5633L29.1824 63.8045H25.6451L25.6451 47.8281L7.49412 63.8149V46.6224H0V19.0888H7.47365V0ZM22.9784 22.5829H3.53726V43.1284H7.48986V36.6475L22.9784 22.5829ZM11.0314 38.1979V56.0181L25.6451 43.1468L25.6451 24.9245L11.0314 38.1979ZM29.2842 42.9765V24.9073L43.9022 38.1816V46.6224H43.921V55.8362L29.2842 42.9765ZM47.4583 43.1284H51.3921V22.5829L32.0956 22.5828L47.4583 36.5019V43.1284ZM43.898 19.0888V8.03711L31.9029 19.0888L43.898 19.0888ZM23.006 19.0888H11.0109V8.03711L23.006 19.0888Z" fill="#F4F4EF"/>
</svg>
