<svg width="33" height="33" viewBox="0 0 33 33" fill="none" xmlns="http://www.w3.org/2000/svg">
<path d="M32.2785 29.971L26.2498 23.991C28.5899 21.0732 29.7232 17.3696 29.4166 13.6419C29.11 9.91415 27.3867 6.44555 24.6013 3.94933C21.8158 1.45311 18.1797 0.118987 14.4408 0.221298C10.7018 0.323609 7.14421 1.85457 4.49939 4.49939C1.85457 7.14421 0.323609 10.7018 0.221298 14.4408C0.118987 18.1797 1.45311 21.8158 3.94933 24.6013C6.44556 27.3867 9.91415 29.11 13.6419 29.4166C17.3696 29.7232 21.0732 28.5899 23.991 26.2498L29.971 32.2298C30.1221 32.3821 30.3018 32.503 30.4998 32.5855C30.6979 32.668 30.9103 32.7105 31.1248 32.7105C31.3393 32.7105 31.5517 32.668 31.7497 32.5855C31.9477 32.503 32.1275 32.3821 32.2785 32.2298C32.5714 31.9268 32.7351 31.5218 32.7351 31.1004C32.7351 30.679 32.5714 30.274 32.2785 29.971ZM14.8748 26.2498C12.625 26.2498 10.4258 25.5827 8.55517 24.3327C6.68456 23.0828 5.2266 21.3063 4.36565 19.2278C3.50471 17.1493 3.27944 14.8622 3.71835 12.6556C4.15726 10.4491 5.24062 8.42227 6.83144 6.83144C8.42227 5.24062 10.4491 4.15726 12.6556 3.71835C14.8622 3.27944 17.1493 3.50471 19.2278 4.36565C21.3063 5.2266 23.0829 6.68456 24.3328 8.55517C25.5827 10.4258 26.2498 12.625 26.2498 14.8748C26.2498 17.8916 25.0513 20.7849 22.9181 22.9181C20.7849 25.0513 17.8916 26.2498 14.8748 26.2498Z" fill="black"/>
</svg>
