<svg width="131" height="40" viewBox="0 0 131 40" fill="none" xmlns="http://www.w3.org/2000/svg">
<path d="M31.266 17.7304C24.9335 13.9017 14.4882 13.5498 8.44307 15.4176C7.47205 15.7175 6.44561 15.1597 6.15161 14.1713C5.85743 13.1824 6.40479 12.138 7.37616 11.8376C14.3158 9.69317 25.8514 10.1073 33.1415 14.5129C34.0149 15.0407 34.301 16.1887 33.7835 17.0761C33.2656 17.965 32.1369 18.2583 31.2658 17.7304M31.0585 23.4009C30.6143 24.1349 29.6716 24.3651 28.9516 23.9145C23.6725 20.6108 15.622 19.6536 9.37608 21.5838C8.56622 21.8327 7.71062 21.3681 7.46466 20.5449C7.3474 20.1491 7.38907 19.7222 7.58052 19.3577C7.77198 18.9932 8.0976 18.7208 8.486 18.6004C15.6209 16.396 24.491 17.4635 30.5546 21.2572C31.2746 21.7086 31.5012 22.6687 31.0585 23.4009ZM28.6547 28.8468C28.571 28.9868 28.461 29.1085 28.3311 29.2051C28.2012 29.3017 28.0538 29.3713 27.8974 29.4098C27.741 29.4483 27.5787 29.4551 27.4197 29.4297C27.2608 29.4042 27.1083 29.3472 26.9711 29.2617C22.3579 26.3913 16.5513 25.7431 9.71301 27.3333C9.55632 27.3698 9.39411 27.3745 9.23564 27.3471C9.07717 27.3197 8.92555 27.2609 8.78943 27.1738C8.65331 27.0868 8.53537 26.9733 8.44234 26.8399C8.34931 26.7065 8.28302 26.5557 8.24724 26.3961C8.21122 26.2366 8.20646 26.0713 8.23326 25.9099C8.26005 25.7484 8.31787 25.594 8.40339 25.4553C8.48892 25.3166 8.60047 25.1965 8.73166 25.1018C8.86286 25.0071 9.01111 24.9397 9.16794 24.9034C16.6513 23.162 23.0703 23.9114 28.2484 27.1327C28.3857 27.218 28.5051 27.3301 28.5998 27.4624C28.6945 27.5948 28.7627 27.7449 28.8004 27.904C28.8382 28.0632 28.8447 28.2284 28.8198 28.3902C28.7948 28.552 28.7386 28.7071 28.6547 28.8468ZM19.6449 0C8.79565 0 0 8.95413 0 19.9996C0 31.0462 8.79565 40 19.6451 40C30.495 40 39.2905 31.0462 39.2905 19.9996C39.2905 8.95431 30.495 0 19.6449 0ZM53.4478 18.4635C50.0558 17.6399 49.4521 17.0619 49.4521 15.8475C49.4521 14.7002 50.5131 13.9284 52.0909 13.9284C53.6204 13.9284 55.1368 14.5147 56.727 15.7218C56.7752 15.7583 56.8353 15.7728 56.8948 15.7633C56.9241 15.7589 56.9522 15.7484 56.9774 15.7325C57.0026 15.7167 57.0244 15.6958 57.0414 15.6711L58.6975 13.2942C58.7656 13.1964 58.7471 13.0613 58.6553 12.9866C56.7628 11.4408 54.6319 10.6892 52.1411 10.6892C48.4787 10.6892 45.9205 12.9264 45.9205 16.1282C45.9205 19.5613 48.1273 20.7767 51.9407 21.7152C55.1864 22.4765 55.7343 23.1138 55.7343 24.2539C55.7343 25.517 54.6267 26.3023 52.8441 26.3023C50.8642 26.3023 49.2493 25.6234 47.4427 24.0307C47.397 23.9923 47.3388 23.973 47.2796 23.9766C47.2198 23.9816 47.1653 24.0099 47.1273 24.0565L45.2702 26.3064C45.1923 26.3997 45.2021 26.5393 45.2922 26.6199C47.3942 28.5303 49.9793 29.5395 52.7688 29.5395C56.7155 29.5395 59.2654 27.344 59.2654 23.9463C59.2654 21.0747 57.5804 19.4865 53.4478 18.4635ZM71.0591 22.3121C71.0591 24.7368 69.5918 26.4289 67.491 26.4289C65.4144 26.4289 63.8478 24.6599 63.8478 22.3121C63.8478 19.9644 65.4144 18.1952 67.4912 18.1952C69.5582 18.1952 71.0591 19.9262 71.0591 22.3121ZM68.1943 15.0578C66.4836 15.0578 65.0806 15.7438 63.9237 17.1492V15.5672C63.9237 15.4423 63.8241 15.3406 63.7014 15.3406H60.6645C60.5417 15.3406 60.4425 15.4423 60.4425 15.5672V33.1451C60.4425 33.27 60.5417 33.3717 60.6645 33.3717H63.7013C63.8241 33.3717 63.9237 33.27 63.9237 33.1451V27.5966C65.0808 28.9188 66.4841 29.5647 68.1943 29.5647C71.3727 29.5647 74.5903 27.0737 74.5903 22.3121C74.5903 17.5493 71.3727 15.0578 68.1943 15.0578ZM82.838 26.4542C80.6608 26.4542 79.0194 24.6734 79.0194 22.3121C79.0194 19.9407 80.6039 18.2201 82.7877 18.2201C84.9789 18.2201 86.6315 20.0009 86.6315 22.3638C86.6315 24.7346 85.0361 26.4542 82.838 26.4542ZM82.838 15.0578C78.7446 15.0578 75.5379 18.2667 75.5379 22.364C75.5379 26.4166 78.7226 29.5916 82.7877 29.5916C86.8956 29.5916 90.1123 26.3936 90.1123 22.3121C90.1123 18.2443 86.9178 15.0578 82.838 15.0578ZM98.8534 15.3406H95.5114V11.8618C95.5114 11.7369 95.4125 11.6352 95.2897 11.6352H92.253C92.1302 11.6352 92.0303 11.7369 92.0303 11.8618V15.3406H90.5699C90.4477 15.3406 90.3486 15.4423 90.3486 15.5672V18.2244C90.3486 18.3492 90.4477 18.451 90.5699 18.451H92.0303V25.327C92.0303 28.1056 93.3887 29.5148 96.0679 29.5148C97.1574 29.5148 98.0613 29.2857 98.9133 28.794C98.9822 28.7546 99.0253 28.6786 99.0253 28.5979V26.0673C99.0254 26.0287 99.0158 25.9907 98.9973 25.9569C98.9789 25.9231 98.9523 25.8947 98.9201 25.8744C98.8878 25.8541 98.851 25.8425 98.8131 25.8407C98.7752 25.8389 98.7375 25.8471 98.7035 25.8643C98.1185 26.164 97.5529 26.3023 96.9207 26.3023C95.9464 26.3023 95.5114 25.852 95.5114 24.8425V18.451H98.8536C98.9764 18.451 99.0751 18.3492 99.0751 18.2244V15.5672C99.0751 15.4423 98.9764 15.3406 98.8536 15.3406M110.498 15.354V14.9268C110.498 13.6698 110.971 13.1093 112.033 13.1093C112.666 13.1093 113.175 13.2374 113.744 13.4308C113.778 13.4421 113.813 13.4452 113.848 13.4397C113.883 13.4343 113.916 13.4204 113.944 13.3994C113.973 13.3784 113.996 13.3507 114.012 13.3188C114.028 13.2868 114.036 13.2514 114.036 13.2155V10.6097C114.036 10.5612 114.021 10.514 113.993 10.4749C113.965 10.4359 113.925 10.4071 113.879 10.393C113.278 10.2106 112.508 10.0235 111.355 10.0235C108.55 10.0235 107.067 11.6319 107.067 14.6727V15.327H105.608C105.549 15.3271 105.492 15.3509 105.451 15.3934C105.409 15.4358 105.385 15.4933 105.385 15.5534V18.2244C105.385 18.3491 105.485 18.4512 105.608 18.4512H107.067V29.0571C107.067 29.182 107.166 29.2837 107.288 29.2837H110.325C110.448 29.2837 110.548 29.182 110.548 29.0571V18.451H113.384L117.728 29.0541C117.234 30.1682 116.749 30.3898 116.088 30.3898C115.552 30.3898 114.989 30.2271 114.413 29.9063C114.386 29.8916 114.356 29.8825 114.326 29.8796C114.296 29.8767 114.265 29.88 114.236 29.8895C114.178 29.9103 114.129 29.9541 114.105 30.0115L113.075 32.3106C113.052 32.3626 113.048 32.4218 113.066 32.4761C113.084 32.5305 113.121 32.5759 113.171 32.6031C114.245 33.1957 115.216 33.4486 116.414 33.4486C118.657 33.4486 119.897 32.3851 120.989 29.5241L126.259 15.6625C126.272 15.6282 126.276 15.5913 126.272 15.5548C126.268 15.5182 126.256 15.4833 126.235 15.4529C126.215 15.4225 126.188 15.3976 126.156 15.3804C126.124 15.3631 126.088 15.354 126.052 15.3538H122.891C122.844 15.3539 122.799 15.3685 122.762 15.3957C122.724 15.4229 122.695 15.4614 122.68 15.5057L119.441 24.9243L115.894 15.4995C115.878 15.4566 115.849 15.4197 115.812 15.3937C115.775 15.3677 115.731 15.3538 115.686 15.3538L110.498 15.354ZM103.747 15.3406H100.71C100.588 15.3406 100.488 15.4423 100.488 15.5672V29.0569C100.488 29.1818 100.588 29.2835 100.71 29.2835H103.747C103.87 29.2835 103.97 29.1818 103.97 29.0569V15.5672C103.97 15.4423 103.87 15.3406 103.747 15.3406ZM102.244 9.19827C101.041 9.19827 100.065 10.1899 100.065 11.4147C100.065 12.6404 101.041 13.6332 102.244 13.6332C103.447 13.6332 104.422 12.6404 104.422 11.4147C104.422 10.1899 103.447 9.19827 102.244 9.19827ZM128.976 16.6824H128.419V17.4048H128.976C129.254 17.4048 129.419 17.2665 129.419 17.0435C129.419 16.8083 129.254 16.6824 128.976 16.6824ZM129.336 17.7128L129.941 18.5746H129.431L128.887 17.7843H128.419V18.5746H127.993V16.2908H128.993C129.514 16.2908 129.857 16.5622 129.857 17.0191C129.857 17.3935 129.645 17.6224 129.336 17.7128ZM128.863 15.5305C127.768 15.5305 126.939 16.4166 126.939 17.5015C126.939 18.5859 127.762 19.4601 128.852 19.4601C129.946 19.4601 130.775 18.5746 130.775 17.4891C130.775 16.4046 129.952 15.5305 128.863 15.5305ZM128.852 19.6778C127.65 19.6778 126.714 18.6949 126.714 17.5015C126.714 16.3082 127.662 15.3141 128.863 15.3141C130.065 15.3141 131 16.2967 131 17.4891C131 18.6828 130.053 19.6778 128.852 19.6778Z" fill="#191414"/>
</svg>
