<svg width="87" height="27" viewBox="0 0 87 27" fill="none" xmlns="http://www.w3.org/2000/svg">
<path d="M20.7644 11.7751C16.5589 9.23245 9.62195 8.9987 5.60723 10.2392C4.96235 10.4383 4.28067 10.0679 4.08542 9.41148C3.89005 8.75472 4.25356 8.06109 4.89867 7.8616C9.50744 6.43745 17.1685 6.71248 22.01 9.63833C22.59 9.9889 22.78 10.7513 22.4364 11.3406C22.0924 11.931 21.3428 12.1257 20.7643 11.7751M20.6267 15.5411C20.3316 16.0286 19.7056 16.1814 19.2274 15.8821C15.7215 13.6881 10.3749 13.0524 6.22686 14.3343C5.68902 14.4996 5.12079 14.191 4.95744 13.6443C4.87957 13.3815 4.90724 13.098 5.03439 12.8559C5.16154 12.6138 5.3778 12.4329 5.63574 12.3529C10.3742 10.8889 16.265 11.5979 20.292 14.1174C20.7702 14.4172 20.9207 15.0548 20.6267 15.5411ZM19.0302 19.1578C18.9746 19.2507 18.9016 19.3316 18.8153 19.3958C18.729 19.4599 18.6311 19.5061 18.5273 19.5317C18.4234 19.5573 18.3156 19.5618 18.2101 19.5449C18.1045 19.528 18.0032 19.4901 17.9121 19.4333C14.8484 17.527 10.9921 17.0965 6.45062 18.1526C6.34656 18.1769 6.23884 18.18 6.13359 18.1618C6.02835 18.1436 5.92765 18.1045 5.83726 18.0468C5.74686 17.989 5.66853 17.9136 5.60675 17.825C5.54496 17.7364 5.50094 17.6362 5.47718 17.5303C5.45325 17.4243 5.45009 17.3145 5.46789 17.2073C5.48568 17.1001 5.52408 16.9975 5.58088 16.9054C5.63768 16.8133 5.71176 16.7336 5.79889 16.6707C5.88602 16.6078 5.98448 16.563 6.08863 16.5389C11.0585 15.3824 15.3215 15.8801 18.7604 18.0194C18.8516 18.0761 18.9309 18.1505 18.9938 18.2384C19.0567 18.3263 19.1019 18.426 19.127 18.5317C19.1521 18.6374 19.1564 18.7471 19.1398 18.8545C19.1233 18.962 19.0859 19.065 19.0302 19.1578ZM13.0466 0C5.84139 0 0 5.94663 0 13.2822C0 20.6185 5.84139 26.5649 13.0467 26.5649C20.2524 26.5649 26.0937 20.6185 26.0937 13.2822C26.0937 5.94675 20.2524 0 13.0466 0ZM35.4958 12.262C33.2432 11.7151 32.8423 11.3312 32.8423 10.5247C32.8423 9.76276 33.5468 9.25018 34.5947 9.25018C35.6105 9.25018 36.6176 9.63952 37.6736 10.4412C37.7056 10.4654 37.7456 10.4751 37.7851 10.4688C37.8046 10.4658 37.8232 10.4589 37.84 10.4483C37.8567 10.4378 37.8711 10.4239 37.8824 10.4075L38.9823 8.82895C39.0275 8.764 39.0153 8.67431 38.9543 8.6247C37.6975 7.59811 36.2822 7.09897 34.628 7.09897C32.1957 7.09897 30.4968 8.58473 30.4968 10.7111C30.4968 12.9911 31.9624 13.7982 34.4949 14.4216C36.6505 14.9271 37.0144 15.3504 37.0144 16.1075C37.0144 16.9464 36.2788 17.4679 35.0949 17.4679C33.7801 17.4679 32.7075 17.0171 31.5078 15.9593C31.4774 15.9338 31.4387 15.921 31.3994 15.9234C31.3597 15.9267 31.3235 15.9455 31.2983 15.9764L30.0649 17.4707C30.0132 17.5326 30.0197 17.6253 30.0795 17.6788C31.4755 18.9476 33.1923 19.6178 35.0449 19.6178C37.666 19.6178 39.3595 18.1598 39.3595 15.9033C39.3595 13.9962 38.2405 12.9414 35.4958 12.262ZM47.1919 14.8179C47.1919 16.4282 46.2174 17.552 44.8223 17.552C43.4432 17.552 42.4028 16.3772 42.4028 14.8179C42.4028 13.2588 43.4432 12.0838 44.8224 12.0838C46.1951 12.0838 47.1919 13.2334 47.1919 14.8179ZM45.2893 10.0002C44.1532 10.0002 43.2215 10.4558 42.4531 11.3891V10.3385C42.4531 10.2556 42.387 10.188 42.3055 10.188H40.2887C40.2071 10.188 40.1412 10.2556 40.1412 10.3385V22.0124C40.1412 22.0953 40.2071 22.1629 40.2887 22.1629H42.3054C42.387 22.1629 42.4531 22.0953 42.4531 22.0124V18.3275C43.2216 19.2056 44.1536 19.6346 45.2893 19.6346C47.4002 19.6346 49.537 17.9803 49.537 14.8179C49.537 11.6549 47.4002 10.0002 45.2893 10.0002ZM55.0146 17.5688C53.5686 17.5688 52.4785 16.3861 52.4785 14.8179C52.4785 13.2431 53.5309 12.1004 54.9812 12.1004C56.4364 12.1004 57.5339 13.283 57.5339 14.8523C57.5339 16.4268 56.4743 17.5688 55.0146 17.5688ZM55.0146 10.0002C52.296 10.0002 50.1664 12.1313 50.1664 14.8524C50.1664 17.5438 52.2814 19.6524 54.9812 19.6524C57.7093 19.6524 59.8456 17.5286 59.8456 14.8179C59.8456 12.1164 57.724 10.0002 55.0146 10.0002ZM65.6507 10.188H63.4313V7.87766C63.4313 7.79474 63.3656 7.72718 63.284 7.72718H61.2673C61.1857 7.72718 61.1193 7.79474 61.1193 7.87766V10.188H60.1495C60.0683 10.188 60.0025 10.2556 60.0025 10.3385V12.1032C60.0025 12.1861 60.0683 12.2537 60.1495 12.2537H61.1193V16.8202C61.1193 18.6656 62.0215 19.6014 63.8008 19.6014C64.5244 19.6014 65.1247 19.4493 65.6905 19.1227C65.7363 19.0966 65.7649 19.0461 65.7649 18.9925V17.3119C65.765 17.2862 65.7586 17.261 65.7463 17.2385C65.7341 17.2161 65.7164 17.1973 65.695 17.1838C65.6736 17.1703 65.6491 17.1625 65.6239 17.1614C65.5988 17.1602 65.5737 17.1656 65.5512 17.1771C65.1627 17.3761 64.787 17.4679 64.3672 17.4679C63.7201 17.4679 63.4313 17.1689 63.4313 16.4984V12.2537H65.6509C65.7324 12.2537 65.798 12.1861 65.798 12.1032V10.3385C65.798 10.2556 65.7324 10.188 65.6509 10.188M73.384 10.1969V9.91324C73.384 9.0784 73.6983 8.70619 74.4035 8.70619C74.8241 8.70619 75.1618 8.79124 75.54 8.91971C75.5623 8.92723 75.5859 8.92925 75.609 8.92562C75.6321 8.92199 75.6541 8.91282 75.673 8.89885C75.692 8.88488 75.7074 8.86651 75.718 8.84528C75.7286 8.82405 75.7341 8.80055 75.734 8.77673V7.04615C75.7341 7.01394 75.7241 6.98255 75.7053 6.95662C75.6865 6.9307 75.66 6.91162 75.6298 6.90221C75.2302 6.78111 74.7189 6.6568 73.9533 6.6568C72.0902 6.6568 71.1055 7.72503 71.1055 9.74444V10.179H70.1366C70.0974 10.179 70.0598 10.1949 70.0321 10.2231C70.0043 10.2512 69.9886 10.2894 69.9884 10.3293V12.1032C69.9884 12.186 70.055 12.2538 70.1366 12.2538H71.1055V19.2975C71.1055 19.3804 71.1713 19.448 71.2526 19.448H73.2695C73.3509 19.448 73.4173 19.3804 73.4173 19.2975V12.2537H75.3006L78.1856 19.2955C77.8579 20.0354 77.5359 20.1825 77.0963 20.1825C76.7409 20.1825 76.3667 20.0745 75.9841 19.8615C75.9662 19.8516 75.9466 19.8456 75.9265 19.8437C75.9063 19.8418 75.8859 19.844 75.8666 19.8503C75.8281 19.8641 75.7957 19.8932 75.7794 19.9313L75.0958 21.4582C75.0801 21.4927 75.0779 21.532 75.0896 21.5681C75.1014 21.6042 75.1262 21.6344 75.1591 21.6525C75.8728 22.046 76.5172 22.2139 77.3133 22.2139C78.8028 22.2139 79.6259 21.5077 80.3518 19.6076L83.8511 10.4018C83.8598 10.3791 83.8629 10.3545 83.8602 10.3303C83.8575 10.306 83.8491 10.2828 83.8356 10.2626C83.8221 10.2424 83.804 10.2259 83.7829 10.2145C83.7617 10.203 83.7381 10.1969 83.7142 10.1968H81.6144C81.5837 10.1969 81.5538 10.2066 81.5287 10.2246C81.5037 10.2427 81.4848 10.2682 81.4746 10.2977L79.3235 16.5528L76.9674 10.2935C76.9569 10.2651 76.938 10.2406 76.9134 10.2233C76.8888 10.206 76.8596 10.1968 76.8297 10.1968L73.384 10.1969ZM68.9008 10.188H66.8837C66.8024 10.188 66.736 10.2556 66.736 10.3385V19.2974C66.736 19.3803 66.8024 19.4478 66.8837 19.4478H68.9008C68.9822 19.4478 69.0486 19.3803 69.0486 19.2974V10.3385C69.0486 10.2556 68.982 10.188 68.9008 10.188ZM67.9026 6.10877C67.1035 6.10877 66.4551 6.76732 66.4551 7.58074C66.4551 8.39476 67.1035 9.05413 67.9026 9.05413C68.7014 9.05413 69.3492 8.39476 69.3492 7.58074C69.3492 6.76732 68.7014 6.10877 67.9026 6.10877ZM85.6558 11.0791H85.2862V11.5589H85.6558C85.8402 11.5589 85.9502 11.467 85.9502 11.3189C85.9502 11.1628 85.8402 11.0791 85.6558 11.0791ZM85.8952 11.7635L86.2968 12.3358H85.9583L85.5969 11.811H85.2861V12.3358H85.0029V10.8191H85.6671C86.0133 10.8191 86.2411 10.9993 86.2411 11.3028C86.2411 11.5514 86.0999 11.7034 85.8952 11.7635ZM85.5806 10.3141C84.8535 10.3141 84.3033 10.9026 84.3033 11.6231C84.3033 12.3433 84.8496 12.9239 85.5732 12.9239C86.3 12.9239 86.8509 12.3358 86.8509 11.6149C86.8509 10.8946 86.3041 10.3141 85.5806 10.3141ZM85.5732 13.0684C84.7749 13.0684 84.1537 12.4157 84.1537 11.6231C84.1537 10.8306 84.783 10.1704 85.5804 10.1704C86.3788 10.1704 87 10.823 87 11.6149C87 12.4076 86.3711 13.0684 85.5732 13.0684Z" fill="white"/>
</svg>
