<svg width="20" height="25" viewBox="0 0 20 25" fill="none" xmlns="http://www.w3.org/2000/svg">
<path d="M12.8663 0.366212C13.1007 0.131726 13.4185 0 13.75 0C14.0815 0 14.3993 0.131726 14.6337 0.366212L19.6338 5.36934C19.8681 5.6039 19.9997 5.92198 19.9997 6.25364C19.9997 6.5853 19.8681 6.90339 19.6338 7.13794L14.6337 12.1411C14.398 12.3689 14.0822 12.495 13.7545 12.4921C13.4268 12.4893 13.1132 12.3577 12.8815 12.1258C12.6497 11.8939 12.5183 11.5802 12.5154 11.2523C12.5126 10.9243 12.6386 10.6084 12.8663 10.3725L15.7325 7.50442H1.25C0.918479 7.50442 0.600537 7.37264 0.366117 7.13808C0.131696 6.90351 0 6.58537 0 6.25364C0 5.92191 0.131696 5.60377 0.366117 5.36921C0.600537 5.13464 0.918479 5.00286 1.25 5.00286H15.7325L12.8663 2.13482C12.6319 1.90026 12.5003 1.58218 12.5003 1.25051C12.5003 0.918852 12.6319 0.600768 12.8663 0.366212ZM7.13375 12.874C7.36809 13.1086 7.49973 13.4267 7.49973 13.7583C7.49973 14.09 7.36809 14.4081 7.13375 14.6426L4.2675 17.5107H18.75C19.0815 17.5107 19.3995 17.6425 19.6339 17.877C19.8683 18.1116 20 18.4297 20 18.7615C20 19.0932 19.8683 19.4113 19.6339 19.6459C19.3995 19.8805 19.0815 20.0122 18.75 20.0122H4.2675L7.13375 22.8803C7.36145 23.1162 7.48744 23.4321 7.48459 23.7601C7.48174 24.088 7.35028 24.4017 7.11852 24.6337C6.88676 24.8656 6.57325 24.9971 6.2455 25C5.91776 25.0028 5.602 24.8767 5.36625 24.6489L0.36625 19.6458C0.131911 19.4112 0.000267029 19.0931 0.000267029 18.7615C0.000267029 18.4298 0.131911 18.1117 0.36625 17.8772L5.36625 12.874C5.60066 12.6395 5.91854 12.5078 6.25 12.5078C6.58146 12.5078 6.89934 12.6395 7.13375 12.874Z" fill="white"/>
</svg>
